<?xml version="1.0" encoding="utf-8"?><svg xmlns="http://www.w3.org/2000/svg" xmlns:xlink="http://www.w3.org/1999/xlink"><symbol viewBox="0 0 447.24 447.24" id="arrow" xmlns="http://www.w3.org/2000/svg"><path d="M420.361 192.229a31.967 31.967 0 00-5.535-.41H99.305l6.88-3.2a63.998 63.998 0 0018.08-12.8l88.48-88.48c11.653-11.124 13.611-29.019 4.64-42.4-10.441-14.259-30.464-17.355-44.724-6.914a32.018 32.018 0 00-3.276 2.754l-160 160c-12.504 12.49-12.515 32.751-.025 45.255l.025.025 160 160c12.514 12.479 32.775 12.451 45.255-.063a32.084 32.084 0 002.745-3.137c8.971-13.381 7.013-31.276-4.64-42.4l-88.32-88.64a64.002 64.002 0 00-16-11.68l-9.6-4.32h314.24c16.347.607 30.689-10.812 33.76-26.88 2.829-17.445-9.019-33.88-26.464-36.71z"/></symbol><symbol viewBox="0 0 16 26" id="clip" xmlns="http://www.w3.org/2000/svg"><path fill-rule="evenodd" clip-rule="evenodd" d="M6.648 17.156V7.157a.937.937 0 10-1.874 0v9.793c0 .108.019.216.056.318.106.3.931 3.013 3.068 3.013 1.825 0 2.881-2.013 3.125-3.125V7.763c0-.15.125-3.687-1.837-5.73A5.624 5.624 0 005.399.283c-1.507 0-2.425.8-3.35 1.768C.28 3.926.399 6.851.399 6.932v10.811c0 2.713 1.731 7.537 6.874 7.537 2.581 0 4.481-.444 5.937-1.937a8.437 8.437 0 002.188-5.562V5.282a.937.937 0 00-1.875 0v12.461a6.555 6.555 0 01-1.656 4.294c-1.088 1.118-2.538 1.368-4.594 1.368-4.6 0-5-5.468-5-5.687V6.882s-.068-2.281 1.132-3.543c.562-.588 1-1.188 1.994-1.188a3.8 3.8 0 012.43 1.144c1.407 1.462 1.32 4.33 1.32 4.374v9.487c-.1.4-.67 1.25-1.25 1.25-.582 0-1.007-.681-1.25-1.25z"/></symbol><symbol viewBox="0 0 34 34" id="dollar" xmlns="http://www.w3.org/2000/svg"><path fill-rule="evenodd" clip-rule="evenodd" d="M17.166.302C7.986.302.544 7.744.544 16.924s7.442 16.623 16.622 16.623 16.622-7.442 16.622-16.623c0-9.18-7.442-16.622-16.622-16.622zm0 30.978c-7.928 0-14.355-6.427-14.355-14.356C2.81 8.996 9.238 2.57 17.166 2.57c7.928 0 14.356 6.427 14.356 14.355 0 7.929-6.427 14.356-14.356 14.356z"/><path fill-rule="evenodd" clip-rule="evenodd" d="M17.922 15.89V9.897c.507.175.967.465 1.345.846.445.446.46.703.46 1.73a1.133 1.133 0 102.267 0A4.027 4.027 0 0020.87 9.15a5.576 5.576 0 00-2.947-1.58v-.453a1.133 1.133 0 10-2.267 0v.612a5.364 5.364 0 00-4.155 5.418c0 2.818 2.266 4.2 4.155 4.692v6.875a3.778 3.778 0 01-2.266-3.657 1.133 1.133 0 00-2.267 0c0 3.023 1.964 5.569 4.533 5.992v.446a1.133 1.133 0 002.267 0v-.522c2.267-.43 4.91-1.904 4.91-5.523 0-3.249-3.021-5.13-4.91-5.56zm-4.156-2.743a3.067 3.067 0 011.89-3.023v5.29a2.5 2.5 0 01-1.89-2.267zm4.156 11.514v-6.407c1.05.408 2.644 1.511 2.644 3.204a3.15 3.15 0 01-2.644 3.203z"/></symbol><symbol viewBox="0 0 213.33 213.33" id="dropdown" xmlns="http://www.w3.org/2000/svg"><path d="M0 53.333L106.667 160 213.333 53.333z"/></symbol><symbol viewBox="0 0 22 11" id="shape" xmlns="http://www.w3.org/2000/svg"><path fill-rule="evenodd" clip-rule="evenodd" d="M3.212 2h4.726A8.001 8.001 0 010 9v2c5.523 0 10-4.477 10-10V0H3.212v2zM22 0h-6.788v2h4.726A8.001 8.001 0 0112 9v2c5.523 0 10-4.477 10-10V0z"/></symbol><symbol viewBox="0 0 29 34" id="shield" xmlns="http://www.w3.org/2000/svg"><path fill-rule="evenodd" clip-rule="evenodd" d="M14.664 2.569c11.153 0 11.897 3.022 11.897 3.022V15.64c0 5.458-2.896 10.492-7.577 13.17l-4.32 2.47-4.32-2.47c-4.682-2.678-7.578-7.712-7.578-13.17V5.591s0-3.022 11.898-3.022zm0-2.267c-5.287 0-9.124.59-11.407 1.753C.737 3.34.535 5.077.535 5.591V15.64c.012 6.265 3.342 12.038 8.715 15.111l4.32 2.47a2.2 2.2 0 002.187 0l4.32-2.47c5.373-3.073 8.703-8.846 8.715-15.111V5.591c0-.186-.023-.371-.067-.551-.439-1.768-2.84-4.738-14.061-4.738z"/><path fill-rule="evenodd" clip-rule="evenodd" d="M13.92 21.08c-.296 0-.58-.12-.788-.332l-5.205-5.29a1.146 1.146 0 01.027-1.573 1.103 1.103 0 011.549-.028l4.417 4.488 7.391-7.51a1.103 1.103 0 011.55.027c.424.432.436 1.128.027 1.574l-8.18 8.312a1.107 1.107 0 01-.788.332z"/></symbol><symbol viewBox="0 0 37 39" id="stopwatch" xmlns="http://www.w3.org/2000/svg"><path fill-rule="evenodd" clip-rule="evenodd" d="M20.234 23.551a2.193 2.193 0 01-3.334.265 2.216 2.216 0 01.261-3.351l7.988-5.811a.616.616 0 01.798.064.623.623 0 01.064.802l-5.777 8.031zm-2.348-2.082a.973.973 0 00-.114 1.47.965.965 0 001.463-.116l3.524-4.899-4.872 3.544z"/><path d="M18.626 24.457l.034.448h.001l-.035-.448zm1.608-.906l.365.264-.365-.264zm-3.334.265l.32-.317-.32.317zm-.637-1.736l-.449-.034.449.034zm.898-1.615l-.264-.364h-.001l.265.364zm7.988-5.811l-.264-.365.264.365zm.798.064l.32-.317h-.001l-.319.317zm.064.802l-.365-.262.365.262zm-8.518 6.657l.449.035-.449-.035zm.394-.709l-.265-.363h-.001l.266.363zm-.114 1.47l-.32.317.32-.317zm.756.281l.03.45.006-.001-.036-.449zm.706-.397l.365.264-.365-.264zm3.524-4.898l.365.263-.63-.627.265.364zm-4.098 6.981a2.642 2.642 0 001.938-1.09l-.73-.527c-.303.419-.768.68-1.278.72l.07.897zm-.208.008c.07 0 .14-.003.207-.008l-.067-.897a1.897 1.897 0 01-.14.005v.9zm-1.872-.78c.499.502 1.172.78 1.872.78v-.9c-.46 0-.904-.183-1.233-.514l-.639.634zm-.767-2.087c-.06.776.22 1.537.767 2.087l.638-.635a1.766 1.766 0 01-.507-1.383l-.898-.07zm1.082-1.944a2.66 2.66 0 00-1.082 1.944l.898.07a1.76 1.76 0 01.715-1.288l-.531-.726zm7.989-5.812l-7.988 5.81.53.729 7.987-5.812-.53-.727zm1.38.11a1.066 1.066 0 00-1.38-.11l.528.728a.166.166 0 01.216.018l.637-.636zm.111 1.383c.306-.425.26-1.01-.11-1.382l-.638.634c.06.06.067.155.018.223l.73.525zM20.6 23.814l5.777-8.03-.73-.526-5.777 8.03.73.526zm-2.657-1.602a.52.52 0 01.21-.38l-.531-.727a1.42 1.42 0 00-.576 1.038l.897.069zm.15.41a.523.523 0 01-.15-.41l-.897-.07c-.033.414.117.82.408 1.113l.639-.633zm.408.148a.521.521 0 01-.408-.149l-.639.635c.297.298.702.44 1.106.412l-.06-.898zm.37-.212a.514.514 0 01-.376.213l.071.897a1.414 1.414 0 001.035-.582l-.73-.528zm3.524-4.897L18.87 22.56l.73.525 3.524-4.898-.73-.526zm-4.243 4.171l4.873-3.544-.53-.728-4.872 3.545.53.727z"/><path fill-rule="evenodd" clip-rule="evenodd" d="M33.383 13.05l-.002-.005a.06.06 0 00-.007-.02c-.004-.007-.009-.012-.014-.017L33.352 13l-.005-.006a16.777 16.777 0 00-2.231-2.965l1.344-1.324.885.872L36 6.96l-2.655-2.616L30.69 6.96l.885.873-1.344 1.324a16.988 16.988 0 00-3.01-2.2c-.012-.007-.018-.02-.031-.027a.077.077 0 00-.021-.007l-.02-.006a16.948 16.948 0 00-6.428-2.1v-.734h.939c.863 0 1.564-.69 1.564-1.541 0-.85-.702-1.542-1.565-1.542h-5.633c-.863 0-1.564.691-1.564 1.542 0 .85.701 1.541 1.564 1.541h.94v.713c-.677.071-1.351.18-2.019.33a.616.616 0 10.28 1.202c.576-.13 1.157-.228 1.74-.294l.672-.051c.205-.016.394-.027.578-.035v1.219c0 .34.28.616.626.616a.62.62 0 00.625-.616V5.952a15.72 15.72 0 016.544 1.754l-.617 1.053a.612.612 0 00.386.905.638.638 0 00.155.02c.217 0 .427-.11.543-.308l.615-1.05a15.653 15.653 0 014.864 4.792l-1.065.606a.611.611 0 00-.228.843.628.628 0 00.855.225l1.068-.608a15.132 15.132 0 011.783 6.549h-1.236a.62.62 0 00-.626.616c0 .341.28.617.626.617h1.236a15.132 15.132 0 01-1.783 6.548l-1.069-.608a.63.63 0 00-.854.226.612.612 0 00.229.842l1.066.607a15.654 15.654 0 01-4.864 4.792l-.616-1.05a.63.63 0 00-.855-.226.61.61 0 00-.229.843l.617 1.053a15.7 15.7 0 01-6.543 1.754v-1.214a.62.62 0 00-.626-.616.62.62 0 00-.626.616v1.219c-1-.034-2.002-.157-2.989-.38a.616.616 0 10-.28 1.202 17.153 17.153 0 003.845.425l.037-.002.003.001h.003l.006.002c.005 0 .01-.003.014-.003a16.97 16.97 0 008.273-2.203c.02-.01.04-.013.059-.024l.017-.015.007-.007.007-.006a16.899 16.899 0 006.116-6.019l.016-.02a.124.124 0 00.022-.028.076.076 0 00.007-.022.1.1 0 01.006-.017 16.346 16.346 0 002.251-8.286 16.36 16.36 0 00-2.25-8.286.066.066 0 01-.005-.014zm-.039-6.962l.886.872-.886.873-.885-.873.885-.872zM18.217 2.85v1.863l.13-.003.086-.001c.102-.002.205-.009.308-.009h.023l.024.001h.027l.028-.001c.2 0 .408.004.625.013V2.85h2.19a.312.312 0 00.314-.308c0-.17-.14-.309-.313-.309h-5.632a.316.316 0 00-.249.122.303.303 0 00-.064.187c0 .17.14.308.313.308h2.19z"/><path d="M33.381 13.045l-.436.11v.002l.436-.112zm.002.005l.436-.11v-.002l-.436.112zm-.009-.025l.401-.204-.009-.018-.01-.017-.382.239zm-.014-.017l-.318.319.003.002.315-.32zM33.352 13l-.346.288.013.016.015.014.318-.318zm-.005-.006l-.387.23.018.03.023.028.346-.288zm-2.231-2.965l-.316-.321-.314.309.302.32.328-.308zm1.344-1.324l.316-.32-.316-.312-.316.311.316.32zm.885.872l-.316.32.316.311.316-.31-.316-.321zM36 6.96l.316.32.325-.32-.325-.32-.316.32zm-2.655-2.616l.316-.32-.316-.312-.316.312.316.32zM30.69 6.96l-.316-.32-.325.32.325.32.316-.32zm.885.873l.316.32.325-.32-.325-.32-.316.32zm-1.344 1.324l-.304.332.315.288.305-.3-.316-.32zm-3.01-2.2l-.25.374.013.009.013.008.224-.39zm-.031-.027l.227-.388-.006-.004-.221.392zm-.021-.007l-.107.437.003.001.104-.438zm-.02-.006l-.221.391.008.005.01.005.204-.401zm-6.428-2.1h-.45v.402l.398.046.052-.447zm0-.734v-.45h-.45v.45h.45zm-3.756 0h.45v-.45h-.45v.45zm0 .713l.047.448.403-.043v-.405h-.45zm-2.018.33l.1.44-.1-.44zm-.47.739l.439-.102-.439.102zm.75.463l-.099-.439h-.001l.1.439zm1.74-.294l-.034-.449h-.008l-.009.002.051.447zm.672-.051l-.034-.45v.001l.034.449zm.578-.035h.45v-.472l-.471.022.02.45zm1.252.004l.02-.45-.47-.021v.47h.45zm6.543 1.754l.388.228.24-.409-.42-.218-.208.4zm-.617 1.053l-.388-.228.388.228zm.23.842l.223-.39h-.001l-.223.39zm.155.063l-.11.437.11-.437zm.107.018l-.035.449h.001l.034-.449zm.592-.306l-.388-.228.388.228zm.615-1.05l.239-.382-.393-.246-.234.4.388.227zm4.864 4.792l.223.391.413-.235-.257-.4-.379.244zm-1.065.606l-.223-.39.223.39zm-.228.843l-.389.227.389-.227zm.855.225l-.223-.39.223.39zm1.068-.608l.397-.212-.218-.407-.402.228.223.391zm1.783 6.549v.45h.468l-.018-.468-.45.018zm0 1.233l.45.018.018-.468h-.468v.45zm-1.783 6.548l-.223.392.402.228.218-.407-.397-.213zm-1.069-.608l.223-.39-.223.39zm-.854.226l.388.227-.388-.227zm.229.842l.222-.39-.222.39zm1.066.607l.378.243.257-.4-.413-.235-.223.392zm-4.864 4.792l-.389.228.234.4.393-.246-.238-.382zm-.616-1.05l.389-.227-.389.227zm-.855-.226l.223.392.001-.001-.224-.39zm-.229.843l.389-.228-.389.228zm.617 1.053l.208.399.42-.219-.24-.408-.388.227zm-6.543 1.754h-.45v.47l.47-.02-.02-.45zm-1.252.005l-.015.45.465.015v-.465h-.45zm-2.989-.38l-.103.437.004.001.1-.439zm-.75.462l.439.103-.438-.102zm.47.74l.1-.44-.1.44zm3.845.425l-.014-.45h-.003l.017.45zm.037-.002l.069-.444-.041-.007-.042.002.014.45zm.003.001l.122-.433-.026-.008-.027-.004-.069.445zm.003 0l.145-.425-.011-.004-.012-.003-.122.433zm.02-.001v.45h.003l-.003-.45zm8.273-2.203l-.182-.412-.02.009-.02.011.222.392zm.076-.04l-.316-.32-.007.007.323.314zm.007-.006l-.28-.352-.02.015-.016.017.316.32zm.007-.006l-.224-.39-.03.017-.026.021.28.352zm6.116-6.019l-.366-.26-.011.014-.01.017.387.23zm.016-.02l-.339-.295-.002.003.341.293zm.022-.028l-.389-.227-.004.007.393.22zm.007-.022l-.437-.107v.004l.437.103zm.006-.017l-.388-.228-.012.02-.01.02.41.188zm0-16.571l-.399.207.006.01.005.01.389-.227zm.843-6.105l.315.32.326-.32-.326-.32-.316.32zm-.886-.872l.316-.32-.315-.312-.316.311.315.321zm0 1.745l-.315.32.316.311.315-.31-.316-.321zm-.885-.873l-.316-.32-.325.32.325.32.316-.32zM18.217 4.713h-.45v.469l.469-.02-.019-.449zm0-1.863h.45V2.4h-.45v.45zm.13 1.86l.006.45h.002l-.007-.45zm.086-.001l.007.45h.001l-.008-.45zm.308-.009l.011-.45h-.011v.45zm.047.001l-.012.45h.022l-.01-.45zm.055-.001v-.45h-.01l.01.45zm.625.013l-.017.45.468.018v-.468h-.45zm0-1.863V2.4h-.45v.45h.45zm-3.69-.495l.355.276-.355-.276zm17.167 10.802l.002.005.871-.224v-.004l-.873.223zm.029.072a.393.393 0 01-.025-.06l-.004-.015.873-.217s-.012-.057-.042-.116l-.803.408zm.07.1l-.01-.012a.395.395 0 01-.04-.053l.762-.478c-.037-.058-.08-.099-.08-.099l-.631.642zm-.01-.01l.008.007.636-.636-.008-.008-.636.636zM33 13.281l.005.006.691-.576-.004-.006-.692.576zm-2.212-2.945a16.323 16.323 0 012.17 2.886l.775-.458a17.222 17.222 0 00-2.29-3.045l-.655.617zm1.355-1.953L30.8 9.708l.632.641 1.344-1.324-.632-.641zm1.517.872l-.885-.872-.632.641.885.872.632-.641zm2.023-2.616L33.03 9.256l.632.641 2.655-2.616-.632-.641zM33.03 4.665l2.655 2.616.632-.641-2.655-2.616-.632.64zM31.005 7.28l2.656-2.616-.632-.641-2.655 2.615.632.642zm.886.231l-.885-.872-.632.64.885.873.632-.64zm-1.344 1.965l1.344-1.324-.632-.64-1.344 1.323.632.641zm-3.55-2.13a16.531 16.531 0 012.93 2.142l.608-.664a17.438 17.438 0 00-3.09-2.258l-.448.78zm-.034-.028a.39.39 0 01-.077-.059l.001.002.005.004a.474.474 0 00.079.065l.501-.747c.023.015.039.03.047.037l.009.008s.001.002-.002-.001-.016-.017-.033-.031a.505.505 0 00-.076-.055l-.454.777zm.102.042l-.021-.006a.398.398 0 01-.075-.032l.442-.785a.506.506 0 00-.096-.041l-.042-.012-.208.876zm-.12-.043c.06.03.116.042.117.042l.214-.874.017.005a.389.389 0 01.061.025l-.408.802zM20.67 5.265c2.258.261 4.375.974 6.259 2.043l.444-.782a17.4 17.4 0 00-6.6-2.155l-.103.894zm-.398-1.182v.735h.9v-.735h-.9zm1.389-.45h-.94v.9h.94v-.9zm1.114-1.091c0 .595-.494 1.091-1.114 1.091v.9c1.105 0 2.014-.886 2.014-1.991h-.9zM21.66 1.45c.621 0 1.115.496 1.115 1.092h.9c0-1.106-.91-1.992-2.015-1.992v.9zm-5.633 0h5.633v-.9h-5.633v.9zm-1.114 1.092c0-.596.494-1.092 1.114-1.092v-.9c-1.105 0-2.014.887-2.014 1.992h.9zm1.114 1.091c-.62 0-1.114-.496-1.114-1.091h-.9c0 1.105.909 1.991 2.014 1.991v-.9zm.94 0h-.94v.9h.94v-.9zm.45 1.163v-.713h-.9v.713h.9zm-2.37.77c.65-.147 1.307-.253 1.966-.322l-.094-.895a17.92 17.92 0 00-2.07.338l.198.878zm-.13.196a.166.166 0 01.13-.197l-.197-.878c-.575.13-.946.7-.81 1.28l.877-.205zm.21.127a.175.175 0 01-.21-.126l-.877.203c.134.578.715.932 1.289.8l-.201-.877zm1.79-.302a16.6 16.6 0 00-1.788.302l.198.878a15.68 15.68 0 011.692-.286l-.102-.894zm.689-.053l-.672.051.068.898.672-.052-.068-.897zm.59-.036c-.187.009-.38.02-.59.036l.067.897c.2-.015.386-.026.566-.034l-.042-.899zm.472 1.669v-1.22h-.9v1.22h.9zm.176.166a.17.17 0 01-.176-.166h-.9a1.07 1.07 0 001.076 1.066v-.9zm.175-.166a.17.17 0 01-.175.166v.9a1.07 1.07 0 001.076-1.066h-.9zm0-1.215v1.215h.9V5.952h-.9zm7.202 1.355a16.151 16.151 0 00-6.731-1.805l-.04.9c2.286.103 4.44.708 6.356 1.704l.415-.8zm-.436 1.68l.616-1.053-.776-.455-.617 1.052.776.455zm.063.223a.162.162 0 01-.063-.224l-.777-.454a1.062 1.062 0 00.395 1.46l.445-.782zm.044.018a.17.17 0 01-.043-.017l-.447.78c.086.05.176.086.269.11l.221-.873zm.031.005a.187.187 0 01-.03-.005l-.222.873c.06.015.122.025.182.03l.07-.898zm.014 0h-.014l-.069.898c.028.002.055.003.083.003v-.9zm.154-.085a.176.176 0 01-.154.086v.9c.368 0 .73-.188.931-.531l-.777-.455zm.616-1.05l-.615 1.05.776.455.616-1.05-.777-.455zm5.63 4.776a16.104 16.104 0 00-5.003-4.93l-.477.763a15.204 15.204 0 014.724 4.655l.757-.488zm-1.22 1.241l1.065-.606-.445-.782-1.066.606.445.782zm-.063.224a.161.161 0 01.062-.224l-.445-.782a1.061 1.061 0 00-.394 1.461l.777-.455zm.154.086a.178.178 0 01-.155-.087l-.775.457c.201.342.562.53.93.53v-.9zm.09-.023a.178.178 0 01-.09.023v.9c.182 0 .367-.045.536-.142l-.447-.781zm1.068-.609l-1.068.608.445.783 1.068-.609-.445-.782zm2.456 6.922a15.584 15.584 0 00-1.836-6.743l-.794.425a14.684 14.684 0 011.73 6.354l.9-.036zm-1.686.468h1.236v-.9h-1.236v.9zm-.176.166a.17.17 0 01.176-.166v-.9a1.07 1.07 0 00-1.076 1.066h.9zm.176.167a.17.17 0 01-.176-.167h-.9a1.07 1.07 0 001.076 1.067v-.9zm1.236 0h-1.236v.9h1.236v-.9zm-1.386 7.21a15.583 15.583 0 001.836-6.742l-.9-.036a14.684 14.684 0 01-1.73 6.354l.794.425zm-1.688-.428l1.068.608.445-.783-1.068-.608-.445.782zm-.244.061a.18.18 0 01.244-.062l.445-.782a1.08 1.08 0 00-1.466.39l.777.454zm.063.224a.162.162 0 01-.063-.224l-.777-.454c-.3.514-.12 1.168.395 1.46l.445-.782zm1.066.607l-1.066-.607-.445.783 1.066.606.445-.783zm-4.848 5.565a16.102 16.102 0 005.004-4.93l-.757-.488a15.203 15.203 0 01-4.724 4.655l.477.763zm-1.242-1.204l.615 1.05.777-.455-.615-1.05-.777.455zm-.243-.063a.18.18 0 01.243.063l.777-.455a1.08 1.08 0 00-1.467-.389l.447.78zm-.065.224a.161.161 0 01.064-.223l-.445-.783a1.06 1.06 0 00-.394 1.462l.775-.456zm.618 1.053l-.617-1.053-.777.455.617 1.053.777-.455zm-6.912 2.431c2.42-.11 4.703-.75 6.731-1.804l-.415-.799c-1.916.996-4.07 1.6-6.357 1.704l.041.9zm-.47-1.663v1.214h.9v-1.214h-.9zm-.176-.166a.17.17 0 01.176.166h.9a1.07 1.07 0 00-1.076-1.066v.9zm-.176.166a.17.17 0 01.176-.166v-.9a1.07 1.07 0 00-1.076 1.066h.9zm0 1.219v-1.219h-.9v1.219h.9zm-3.538.058c1.016.23 2.047.357 3.073.392l.03-.9a15.567 15.567 0 01-2.905-.37l-.198.878zm-.212.126a.173.173 0 01.208-.127l.207-.876a1.073 1.073 0 00-1.292.8l.877.203zm.13.198a.166.166 0 01-.13-.197l-.877-.205c-.136.581.235 1.15.81 1.28l.197-.878zm3.693.416a16.72 16.72 0 01-3.692-.416l-.2.878c1.282.291 2.592.438 3.892.438v-.9zm.037-.001l-.037.001v.9l.07-.002-.034-.899zm.04-.001h-.038l.029.9h.036l-.028-.9zm.085.005H18.9l-.137.89h.003l.137-.89zm.056.013l-.003-.001-.243.866.003.001.243-.866zm-.116-.016c.044 0 .08.007.104.013l.035.01-.29.852.004.001.007.002a.42.42 0 00.14.022v-.9zm.014-.003a.465.465 0 00-.146.024l.005-.002a.416.416 0 01.127-.019v.9a.464.464 0 00.11-.013l.028-.008.006-.002h.003l-.007.001a.435.435 0 01-.125.018v-.9zm8.051-2.145a16.53 16.53 0 01-8.054 2.145l.006.9a17.429 17.429 0 008.492-2.262l-.444-.783zm.052-.02a.314.314 0 01.036-.018l.012-.005-.005.001-.011.005a.67.67 0 00-.044.017l.364.823a.208.208 0 01-.014.006l.003-.001.01-.004c.016-.006.059-.02.106-.049l-.457-.775zm-.077.06l.015-.015a.398.398 0 01.062-.045l.457.775a.521.521 0 00.112-.089l-.646-.627zm.014-.014l-.007.007.632.64.007-.007-.632-.64zm.043-.038l-.008.006.56.704.008-.006-.56-.704zm6.01-5.896a16.448 16.448 0 01-5.954 5.858l.448.78a17.348 17.348 0 006.28-6.18l-.775-.459zm.06-.083c-.002.003-.021.025-.04.051l.733.522-.011.015h-.001l.002-.002-.682-.586zm-.029.044a.338.338 0 01.028-.042l.004-.005.678.592a.568.568 0 00.075-.105l-.785-.44zm-.038.095c-.001.007.002-.007.007-.023a.406.406 0 01.035-.079l.777.454c.043-.074.057-.146.057-.146l-.876-.206zm.035-.102a.538.538 0 00-.034.098l.874.214a.376.376 0 01-.022.063l-.818-.375zm2.21-8.098c0 2.932-.799 5.682-2.19 8.058l.777.455a16.795 16.795 0 002.313-8.513h-.9zM33 13.292a15.902 15.902 0 012.19 8.058h.9c0-3.099-.845-6.005-2.313-8.513l-.777.455zm-.053-.13a.51.51 0 00.042.11l.799-.415c.02.04.03.074.032.082l-.873.222zm1.6-6.522l-.886-.872-.631.64.885.873.631-.641zm-.886 1.513l.885-.872-.631-.641-.886.872.632.641zm-1.517-.872l.886.872.631-.64-.885-.873-.632.64zm.886-1.514l-.886.872.632.642.885-.872-.631-.642zM18.667 4.713V2.85h-.9v1.863h.9zm-.325-.453l-.143.003.037.9c.037-.002.074-.002.117-.003l-.01-.9zm.083-.001l-.085.001.015.9.085-.001-.015-.9zm.316-.009c-.096 0-.255.008-.316.009l.016.9c.144-.003.19-.009.3-.009v-.9zm.035 0h-.024l-.023.9h.023l.024-.9zm.023.001h-.023l-.024.9h.024l.023-.9zm.006 0h-.027l.02.9h.027l-.02-.9zm.028 0h-.028l.02.9.028-.001-.02-.9zm.653.012a16.209 16.209 0 00-.643-.013v.9c.194 0 .395.004.608.013l.035-.9zm-.468-1.413v1.863h.9V2.85h-.9zm2.64-.45h-2.19v.9h2.19v-.9zm-.136.142c0-.086.067-.142.137-.142v.9a.762.762 0 00.763-.758h-.9zm.137.141a.138.138 0 01-.137-.141h.9a.762.762 0 00-.763-.759v.9zm-5.632 0h5.632v-.9h-5.632v.9zm.106-.052a.135.135 0 01-.106.052v-.9a.765.765 0 00-.604.295l.71.553zm.03-.09a.147.147 0 01-.03.09l-.71-.553a.753.753 0 00-.16.464h.9zm-.136-.141c.07 0 .137.056.137.142h-.9c0 .424.348.758.763.758v-.9zm2.19 0h-2.19v.9h2.19v-.9zM12.923 10.024H9.718c-.355 0-.641.202-.641.452s.286.45.64.45h3.206c.354 0 .641-.2.641-.45s-.287-.452-.64-.452zm.043 4.152H6.983c-.331 0-.598.201-.598.45 0 .25.267.452.598.452h5.983c.33 0 .598-.202.598-.451 0-.25-.267-.451-.598-.451zm-.036 4.151H3.429c-.35 0-.633.201-.633.451s.283.451.633.451h9.503c.35 0 .633-.201.633-.45 0-.25-.283-.452-.633-.452zm.036 4.151H1.598c-.33 0-.598.202-.598.451 0 .25.267.452.598.452h11.368c.33 0 .598-.202.598-.452s-.267-.45-.598-.45zm0 4.152H5.188c-.33 0-.598.201-.598.45 0 .25.267.452.598.452h7.778c.33 0 .598-.202.598-.451 0-.25-.267-.452-.598-.452zm0 4.15H8.778c-.331 0-.599.202-.599.452s.268.45.599.45h4.188c.33 0 .598-.2.598-.45s-.267-.451-.598-.451z"/></symbol></svg>